<svg xmlns="http://www.w3.org/2000/svg" width="50.018" height="104.235" viewBox="0 0 50.018 104.235">
    <g data-name="Group 4504">
        <path data-name="Path 320" d="M136.093 82.429v-2.2c.917-1.484.74-4.061 1.4-5.8 4.525 4.411 9.67 8.2 19.407 7.4q2.333-12.471 4.2-25.408a5.883 5.883 0 0 0-2.8-1.8 63.045 63.045 0 0 0-.4 8.4h-7.6c2.015-2.854 2.264-7.473 2.8-11.8-3.4-3-7.457-4.925-9.2-9.2-3.361-8.238 3.464-14.531 7.8-18.205-1.69-5.011-4-11.368-5.8-17.006-.95-2.966-1.256-5.793-3.8-6.8h8.2c2.214 7.123 4.257 14.416 6.4 21.608a34.91 34.91 0 0 1 10.4-1.4c4.38-6.624 8.668-13.34 12.8-20.207h6.2V.6h-.2c-4.55 6.787-9.8 12.873-14.006 20.006a40.819 40.819 0 0 1 8.8 2.4 26.349 26.349 0 0 1-1.8 7.6 22.5 22.5 0 0 0-9.6-6.6c-3 3.465-5.522 7.416-8.2 11.2a89.019 89.019 0 0 1-1.6 11.2 11.384 11.384 0 0 0 3 2c.516-2.352.6-5.132 1.4-7.2 2.012.122 4.52-.252 6.2.2-.517 3.685-1.246 7.157-1.8 10.8 3.776 3.513 7.946 6.589 8.6 12.8 1.14 10.779-7.061 17.1-14.2 20.407a136.307 136.307 0 0 0-2.2 15.806c5.606.846 16.286-.506 23.808-2.6-.487 1.913-1.326 3.476-1.6 5.6H152.1c2.249-4.955 3.519-11.949 4-18.005a32.606 32.606 0 0 1-20.007-3.8M157.7 25.009c.743 2.258 1.124 4.877 2.2 6.8 1.584-2.818 3.467-5.336 5-8.2a14.852 14.852 0 0 0-7.2 1.4m-3.2 17.606c1.145-5.536.679-10.838-1.8-14.6-4.925 3.469-3.177 12.5 1.8 14.6m9 37.413c8.295-1.958 10.688-14.813 3.4-19.407-1.217 6.387-2.22 12.986-3.4 19.407" transform="translate(-136.093)" style="fill:#fff;fill-rule:evenodd"/>
    </g>
</svg>
