<svg xmlns="http://www.w3.org/2000/svg" width="14.402" height="14.402" viewBox="0 0 14.402 14.402">
  <g id="Group_440" transform="translate(0.5 0.5)">
    <g id="Group_11"  transform="translate(0 0)">
      <path id="Path_54"  d="M9.7,0H3.7A3.7,3.7,0,0,0,0,3.7V9.7a3.7,3.7,0,0,0,3.7,3.7H9.7a3.7,3.7,0,0,0,3.7-3.7V3.7A3.7,3.7,0,0,0,9.7,0Zm2.51,9.7A2.512,2.512,0,0,1,9.7,12.213H3.7A2.512,2.512,0,0,1,1.189,9.7V3.7A2.512,2.512,0,0,1,3.7,1.189H9.7A2.512,2.512,0,0,1,12.213,3.7V9.7Z" fill="#fff" stroke="rgba(0,0,0,0)" stroke-width="1"/>
      <path id="Path_55"  d="M44.421,40.97a3.453,3.453,0,1,0,3.453,3.453A3.457,3.457,0,0,0,44.421,40.97Zm0,5.718a2.264,2.264,0,1,1,2.264-2.264A2.267,2.267,0,0,1,44.421,46.688Z" transform="translate(-37.72 -37.722)" fill="#fff" stroke="rgba(0,0,0,0)" stroke-width="1"/>
      <path id="Path_56"  d="M119.793,28.251a.872.872,0,1,0,.617.255A.875.875,0,0,0,119.793,28.251Z" transform="translate(-109.493 -26.011)" fill="#fff" stroke="rgba(0,0,0,0)" stroke-width="1"/>
    </g>
  </g>
</svg>
