<svg xmlns="http://www.w3.org/2000/svg" width="16.684" height="12.165" viewBox="0 0 16.684 12.165">
  <path id="Path_285" d="M-413.981,326.606a2.195,2.195,0,0,0-1.544-1.545,43.2,43.2,0,0,0-5.974-.334,44.665,44.665,0,0,0-5.973.321h0a2.249,2.249,0,0,0-1.545,1.56,19.85,19.85,0,0,0-.32,3.7,19.727,19.727,0,0,0,.321,3.7,2.2,2.2,0,0,0,1.545,1.545,43.1,43.1,0,0,0,5.974.334,44.658,44.658,0,0,0,5.973-.321,2.2,2.2,0,0,0,1.547-1.547,19.865,19.865,0,0,0,.32-3.7A18.775,18.775,0,0,0-413.981,326.606Zm-9.279,6.26v-5.112l4.438,2.555Z" transform="translate(429.841 -324.227)" fill="#fff" stroke="rgba(0,0,0,0)" stroke-width="1"/>
</svg>
